{"title":"[PC]PK:Tharki Chokro offical Video Song PK 1080P HD Aamir Khan,","uid":11404869,"size":56511178,"categoryP":"video","categoryS":"hd___movies","magnet":"?xt=urn:btih:852ad8154b129e6173bbe96add24184302ecc0c3&amp;dn=%5BPC%5DPK%3ATharki+Chokro+offical+Video+Song+PK+1080P+HD+Aamir+Khan%2C+&amp;tr=udp%3A%2F%2Ftracker.openbittorrent.com%3A80&amp;tr=udp%3A%2F%2Fopen.demonii.com%3A1337&amp;tr=udp%3A%2F%2Ftracker.coppersurfer.tk%3A6969&amp;tr=udp%3A%2F%2Fexodus.desync.com%3A6969","seeders":3,"leechers":0,"uploader":null,"files":1,"time":1415465463,"description":"\nDETAILS\n\n\nID : 1\nFormat : AVC\nFormat/Info : Advanced Video Codec\nFormat profile : &lt;a class=&quot;__cf_email__&quot; href=&quot;/cdn-cgi/l/email-protection&quot; data-cfemail=&quot;b5fddcd2ddf5f9819b85&quot;&gt;[email&amp;#160;protected]&lt;/a&gt;&lt;script cf-hash='f9e31' type=&quot;text/javascript&quot;&gt;\n/* &lt;![CDATA[ */!function(){try{var t=&quot;currentScript&quot;in document?document.currentScript:function(){for(var t=document.getElementsByTagName(&quot;script&quot;),e=t.length;e--;)if(t[e].getAttribute(&quot;cf-hash&quot;))return t[e]}();if(t&amp;&amp;t.previousSibling){var e,r,n,i,c=t.previousSibling,a=c.getAttribute(&quot;data-cfemail&quot;);if(a){for(e=&quot;&quot;,r=parseInt(a.substr(0,2),16),n=2;a.length-n;n+=2)i=parseInt(a.substr(n,2),16)^r,e+=String.fromCharCode(i);e=document.createTextNode(e),c.parentNode.replaceChild(e,c)}}}catch(u){}}();/* ]]&gt; */&lt;/script&gt;\nFormat settings, CABAC : Yes\nFormat settings, ReFrames : 2 frames\nCodec ID : avc1\nCodec ID/Info : Advanced Video Coding\nDuration : 1mn 54s\nBit rate : 3 803 Kbps\nWidth : 1 920 pixels\nHeight : 1 080 pixels\nDisplay aspect ratio : 16:9\nFrame rate mode : Constant\nFrame rate : 25.000 fps\nColor space : YUV\nChroma subsampling : 4:2:0\nBit depth : 8 bits\nScan type : Progressive\nBits/(Pixel*Frame) : 0.073\nStream size : 52.1 MiB (97%)\n\n\nimage\n\nMp3 Audio Info\n\nimage\n\nFormat : MPEG Audio\nFile size : 11.3 MiB\nDuration : 4mn 55s\nOverall bit rate mode : Constant\nOverall bit rate : 320 Kbps\nFormat : MPEG Audio\nFormat version : Version 1\nFormat profile : Layer 3\nDuration : 4mn 56s\nBit rate mode : Constant\nBit rate : 320 Kbps\nChannel(s) : 2 channels\nSampling rate : 44.1 KHz\nCompression mode : Lossy\nStream size : 11.3 MiB (100%)\n\nimage\n\n\nDON'T FORGET TO SAY THANKS","torrent":{"xt":"urn:btih:852ad8154b129e6173bbe96add24184302ecc0c3","amp;dn":"%5BPC%5DPK%3ATharki+Chokro+offical+Video+Song+PK+1080P+HD+Aamir+Khan%2C+","amp;tr":["udp%3A%2F%2Ftracker.openbittorrent.com%3A80","udp%3A%2F%2Fopen.demonii.com%3A1337","udp%3A%2F%2Ftracker.coppersurfer.tk%3A6969","udp%3A%2F%2Fexodus.desync.com%3A6969"],"infoHash":"852ad8154b129e6173bbe96add24184302ecc0c3","infoHashBuffer":{"type":"Buffer","data":[133,42,216,21,75,18,158,97,115,187,233,106,221,36,24,67,2,236,192,195]},"announce":[],"urlList":[]}}